<?xml version="1.0" encoding="UTF-8" standalone="no"?>
<svg
   viewBox="0 0 1048 413"
   height="413"
   width="1048"
   version="1.1"
   id="svg91"
   sodipodi:docname="PyAutomationCore.svg"
   inkscape:version="1.3.2 (091e20e, 2023-11-25, custom)"
   xmlns:inkscape="http://www.inkscape.org/namespaces/inkscape"
   xmlns:sodipodi="http://sodipodi.sourceforge.net/DTD/sodipodi-0.dtd"
   xmlns="http://www.w3.org/2000/svg"
   xmlns:svg="http://www.w3.org/2000/svg">
  <sodipodi:namedview
     id="namedview91"
     pagecolor="#ffffff"
     bordercolor="#000000"
     borderopacity="0.25"
     inkscape:showpageshadow="2"
     inkscape:pageopacity="0.0"
     inkscape:pagecheckerboard="0"
     inkscape:deskcolor="#d1d1d1"
     inkscape:zoom="0.61068702"
     inkscape:cx="419.2"
     inkscape:cy="228.43125"
     inkscape:window-width="1366"
     inkscape:window-height="697"
     inkscape:window-x="-8"
     inkscape:window-y="-8"
     inkscape:window-maximized="1"
     inkscape:current-layer="svg91" />
  <defs
     id="defs2">
    <linearGradient
       x2="3.49747"
       y1="56"
       id="watermark_linear"
       x1="50.1818"
       y2="-11.9045"
       gradientUnits="userSpaceOnUse">
      <stop
         stop-color="#0066FF"
         id="stop1" />
      <stop
         stop-color="#66CCFF"
         offset="1"
         id="stop2" />
    </linearGradient>
  </defs>
  <g
     id="page1"
     transform="translate(5.5,5.5)">
    <rect
       y="0"
       height="403"
       x="0"
       fill="none"
       width="1038"
       id="rect2" />
    <g
       id="group1"
       transform="translate(219.000000,46.000000)">
      <path
         stroke-width="1"
         id="shape2"
         d="M11.0,.0L790.0,.0C796.1,.0,801.0,4.9,801.0,11.0L801.0,307.0C801.0,313.1,796.1,318.0,790.0,318.0L11.0,318.0C4.9,318.0,.0,313.1,.0,307.0L.0,11.0C.0,4.9,4.9,.0,11.0,.0z"
         fill="#e9ecff"
         stroke="#467dfe"
         fill-rule="nonzero" />
    </g>
    <g
       id="group3"
       transform="translate(846.778600,149.041000)">
      <path
         stroke-width="1"
         id="shape4"
         d="M11.0,.0L139.2,.0C145.3,.0,150.2,4.9,150.2,11.0L150.2,125.8C150.2,131.9,145.3,136.8,139.2,136.8L11.0,136.8C4.9,136.8,.0,131.9,.0,125.8L.0,11.0C.0,4.9,4.9,.0,11.0,.0z"
         fill="#ebebeb"
         stroke="#467dfe"
         fill-rule="nonzero" />
    </g>
    <g
       id="group5"
       transform="translate(438.000000,56.000000)">
      <path
         stroke-width="1"
         id="shape6"
         d="M11.0,.0L539.3,.0C545.4,.0,550.3,4.9,550.3,11.0L550.3,67.2C550.3,73.3,545.4,78.2,539.3,78.2L11.0,78.2C4.9,78.2,.0,73.3,.0,67.2L.0,11.0C.0,4.9,4.9,.0,11.0,.0z"
         fill="#fab0b1"
         stroke="#467dfe"
         fill-rule="nonzero" />
    </g>
    <g
       id="group7"
       transform="translate(280.318250,285.041000)">
      <g
         id="group9">
        <path
           stroke-width="1"
           id="shape10"
           d="M31.0,28.2C48.1,28.2,62.0,21.9,62.0,14.1C62.0,6.3,48.1,.0,31.0,.0C13.9,.0,.0,6.3,.0,14.1C.0,21.9,13.9,28.2,31.0,28.2z"
           fill="#467dfe"
           stroke="#467dfe"
           fill-rule="nonzero" />
        <path
           stroke-width="1"
           id="shape11"
           d="M31.0,11.6C14.0,11.6,.2,6.4,.0,.0L.0,8.9C.4,15.2,14.1,20.3,31.0,20.3C47.8,20.3,61.6,15.2,62.0,8.9L62.0,.0C61.8,6.4,48.0,11.6,31.0,11.6z"
           transform="translate(0.000000,22.380400)"
           fill="#467dfe"
           stroke="#467dfe"
           fill-rule="nonzero" />
        <path
           stroke-width="1"
           id="shape12"
           d="M31.0,11.6C14.0,11.6,.2,6.4,.0,.0L.0,8.9C.4,15.2,14.1,20.3,31.0,20.3C47.8,20.3,61.6,15.2,62.0,8.9L62.0,.0C61.8,6.4,48.0,11.6,31.0,11.6z"
           transform="translate(0.000000,37.524700)"
           fill="#467dfe"
           stroke="#467dfe"
           fill-rule="nonzero" />
        <path
           stroke-width="1"
           id="shape13"
           d="M31.0,11.6C14.0,11.6,.2,6.4,.0,.0L.0,8.9C.4,15.2,14.1,20.3,31.0,20.3C47.8,20.3,61.6,15.2,62.0,8.9L62.0,.0C61.8,6.4,48.0,11.6,31.0,11.6z"
           transform="translate(0.000000,51.687000)"
           fill="#467dfe"
           stroke="#467dfe"
           fill-rule="nonzero" />
      </g>
    </g>
    <g
       id="group14"
       transform="translate(846.778600,174.215000)">
      <path
         stroke-width="1"
         id="shape15"
         d="M11.0,.0L139.2,.0C145.3,.0,150.2,4.9,150.2,11.0L150.2,88.5C150.2,94.6,145.3,99.5,139.2,99.5L11.0,99.5C4.9,99.5,.0,94.6,.0,88.5L.0,11.0C.0,4.9,4.9,.0,11.0,.0z"
         fill="#98fab9"
         stroke="#467dfe"
         fill-rule="nonzero" />
    </g>
    <g
       id="group16"
       transform="translate(438.000000,81.825800)">
      <path
         stroke-width="1"
         id="shape17"
         d="M11.0,.0L539.3,.0C545.4,.0,550.3,4.9,550.3,11.0L550.3,31.2C550.3,37.2,545.4,42.2,539.3,42.2L11.0,42.2C4.9,42.2,.0,37.2,.0,31.2L.0,11.0C.0,4.9,4.9,.0,11.0,.0z"
         fill="#feccab"
         stroke="#467dfe"
         fill-rule="nonzero" />
    </g>
    <g
       id="shape18"
       transform="translate(442.313200,56.000200)">
      <text
         xml:space="preserve"
         style="fill:#191919;font-family:Arial,PingFang SC,Mircrosoft YaHei,Arial;font-size:13.00pt"
         id="text3"><tspan
           y="24.0"
           x="4.0"
           style="font-family:Arial,PingFang SC,Mircrosoft YaHei,Arial"
           id="tspan2">CVTEngine</tspan><tspan
           y="44.0"
           x="4.0"
           style="font-family:Arial,PingFang SC,Mircrosoft YaHei,Arial"
           id="tspan3">CVT</tspan></text>
    </g>
    <g
       id="group19"
       transform="translate(846.778600,194.453300)">
      <path
         stroke-width="1"
         id="shape20"
         d="M11.0,.0L139.2,.0C145.3,.0,150.2,4.9,150.2,11.0L150.2,51.5C150.2,57.6,145.3,62.5,139.2,62.5L11.0,62.5C4.9,62.5,.0,57.6,.0,51.5L.0,11.0C.0,4.9,4.9,.0,11.0,.0z"
         fill="#fab0b1"
         stroke="#467dfe"
         fill-rule="nonzero" />
    </g>
    <g
       id="group21"
       transform="translate(225.018000,57.000000)">
      <path
         stroke-width="1"
         id="shape22"
         d="M11.0,.0L151.0,.0C157.0,.0,162.0,4.9,162.0,11.0L162.0,168.3C162.0,174.4,157.0,179.3,151.0,179.3L11.0,179.3C4.9,179.3,.0,174.4,.0,168.3L.0,11.0C.0,4.9,4.9,.0,11.0,.0z"
         fill="#ebebeb"
         stroke="#467dfe"
         fill-rule="nonzero" />
    </g>
    <g
       id="group23"
       transform="translate(225.028000,72.826000)">
      <path
         stroke-width="1"
         id="shape24"
         d="M11.0,.0L151.0,.0C157.0,.0,162.0,4.9,162.0,11.0L162.0,143.2C162.0,149.2,157.0,154.2,151.0,154.2L11.0,154.2C4.9,154.2,.0,149.2,.0,143.2L.0,11.0C.0,4.9,4.9,.0,11.0,.0z"
         fill="#98fab9"
         stroke="#467dfe"
         fill-rule="nonzero" />
    </g>
    <g
       id="group25"
       transform="translate(225.018000,89.825100)">
      <path
         stroke-width="1"
         id="shape26"
         d="M11.0,.0L144.0,.0C150.1,.0,155.0,4.9,155.0,11.0L155.0,11.8C155.0,17.9,150.1,22.8,144.0,22.8L11.0,22.8C4.9,22.8,.0,17.9,.0,11.8L.0,11.0C.0,4.9,4.9,.0,11.0,.0z"
         fill="#379e90"
         stroke="#467dfe"
         fill-rule="nonzero" />
    </g>
    <g
       id="shape27"
       transform="translate(243.295000,81.106980)">
      <text
         xml:space="preserve"
         style="fill:#191919;font-family:Arial,PingFang SC,Mircrosoft YaHei,Arial;font-size:11.00pt"
         id="text4"><tspan
           y="22.4"
           x="11.0"
           style="font-family:Arial,PingFang SC,Mircrosoft YaHei,Arial"
           id="tspan4">OPCUA Server</tspan></text>
    </g>
    <g
       id="shape28"
       transform="translate(223.241000,81.211200)">
      <text
         xml:space="preserve"
         style="fill:#191919;font-family:Arial,PingFang SC,Mircrosoft YaHei,Arial;font-size:11.00pt"
         id="text5"><tspan
           y="5.8"
           x="4.0"
           style="font-family:Arial,PingFang SC,Mircrosoft YaHei,Arial"
           id="tspan5">State Machine Manager</tspan></text>
    </g>
    <g
       id="shape29"
       transform="translate(222.241500,50.000200)">
      <text
         xml:space="preserve"
         style="fill:#191919;font-family:Arial,PingFang SC,Mircrosoft YaHei,Arial;font-size:12.00pt"
         id="text6"><tspan
           y="21.5"
           x="4.3"
           style="font-family:Arial,PingFang SC,Mircrosoft YaHei,Arial"
           id="tspan6">State Machine Worker</tspan></text>
    </g>
    <g
       id="group30"
       transform="translate(846.778600,214.041200)">
      <path
         stroke-width="1"
         id="shape31"
         d="M11.0,.0L139.2,.0C145.3,.0,150.2,4.9,150.2,11.0L150.2,21.8C150.2,27.9,145.3,32.8,139.2,32.8L11.0,32.8C4.9,32.8,.0,27.9,.0,21.8L.0,11.0C.0,4.9,4.9,.0,11.0,.0z"
         fill="#feccab"
         stroke="#467dfe"
         fill-rule="nonzero" />
    </g>
    <g
       id="shape32"
       transform="translate(846.778500,146.041000)">
      <text
         xml:space="preserve"
         style="fill:#191919;font-family:Arial,PingFang SC,Mircrosoft YaHei,Arial;font-size:13.00pt"
         id="text10"><tspan
           y="25.3"
           x="4.1"
           style="font-family:Arial,PingFang SC,Mircrosoft YaHei,Arial"
           id="tspan7">Logger Worker</tspan><tspan
           y="45.3"
           x="4.1"
           style="font-family:Arial,PingFang SC,Mircrosoft YaHei,Arial"
           id="tspan8">DBManager</tspan><tspan
           y="65.3"
           x="4.1"
           style="font-family:Arial,PingFang SC,Mircrosoft YaHei,Arial"
           id="tspan9">DataLoggerEngine</tspan><tspan
           y="85.3"
           x="4.1"
           style="font-family:Arial,PingFang SC,Mircrosoft YaHei,Arial"
           id="tspan10">DataLogger</tspan></text>
    </g>
    <g
       id="shape33"
       transform="translate(921.897050,246.866900)">
      <path
         stroke-width="2.666670083999634"
         d="M.0,9.8L.0,78.0L-569.8,78.0"
         fill="none"
         stroke="#bb720e"
         stroke-dasharray="5.33334,13.3334"
         id="path10" />
      <path
         stroke-linecap="round"
         stroke-width="1"
         d="M-4.9,9.8L.0,.0L4.9,9.8L-4.9,9.8"
         fill="#bb720e"
         stroke="#bb720e"
         id="path11" />
      <path
         stroke-linecap="round"
         stroke-width="1"
         d="M-569.8,82.9L-579.6,78.0L-569.8,73.1L-569.8,82.9"
         fill="#bb720e"
         stroke="#bb720e"
         id="path12" />
    </g>
    <g
       id="shape34"
       transform="translate(968.062126,124.000100)">
      <path
         stroke-width="2.666670083999634"
         d="M.0,5.9L.0,15.2"
         fill="none"
         stroke="#ff0000"
         stroke-dasharray="5.33334,13.3334"
         id="path13" />
      <path
         stroke-linecap="round"
         stroke-width="1"
         d="M-5.9,5.9L.0,.0L5.9,5.9L-5.9,5.9"
         fill="#ff0000"
         stroke="#ff0000"
         id="path14" />
      <path
         stroke-linecap="round"
         stroke-width="1"
         d="M4.9,15.2L.0,25.0L-4.9,15.2L4.9,15.2"
         fill="#ff0000"
         stroke="#ff0000"
         id="path15" />
    </g>
    <g
       id="shape35"
       transform="translate(438.000000,102.912950)">
      <path
         stroke-width="2.666670083999634"
         d="M-9.8,.0L-48.3,.0"
         fill="none"
         stroke="#315abb"
         stroke-dasharray="32,8.00001,10.6667,8.00001,10.6667,8.00001"
         id="path16" />
      <path
         stroke-linecap="round"
         stroke-width="1"
         d="M-9.8,-4.9L.0,.0L-9.8,4.9L-9.8,-4.9"
         fill="#315abb"
         stroke="#315abb"
         id="path17" />
      <path
         stroke-linecap="round"
         stroke-width="1"
         d="M-48.3,4.9L-58.1,.0L-48.3,-4.9L-48.3,4.9"
         fill="#315abb"
         stroke="#315abb"
         id="path18" />
    </g>
    <path
       stroke-width="2.666670083999634"
       id="shape36"
       d="M.0,.0L50.2,.0"
       transform="translate(37.915612,63.549095)"
       fill="none"
       stroke="#bb720e"
       stroke-dasharray="5.33334,13.3334" />
    <path
       stroke-width="2.666670083999634"
       id="shape37"
       d="M.0,.0L48.4,.0"
       transform="translate(37.915612,50.578000)"
       fill="none"
       stroke="#ff0000"
       stroke-dasharray="32,8.00001,10.6667,8.00001,10.6667,8.00001" />
    <g
       id="shape38"
       transform="translate(86.779032,46.000000)">
      <text
         xml:space="preserve"
         style="fill:#191919;font-family:Arial,PingFang SC,Mircrosoft YaHei,Arial;font-size:12.00pt"
         id="text18"><tspan
           y="10.1"
           x="5.9"
           style="font-family:Arial,PingFang SC,Mircrosoft YaHei,Arial"
           id="tspan18">Queue</tspan></text>
    </g>
    <g
       id="shape39"
       transform="translate(85.500742,61.553912)">
      <text
         xml:space="preserve"
         style="fill:#191919;font-family:Arial,PingFang SC,Mircrosoft YaHei,Arial;font-size:12.00pt"
         id="text19"><tspan
           y="8.9"
           x="6.6"
           style="font-family:Arial,PingFang SC,Mircrosoft YaHei,Arial"
           id="tspan19">Thread Safe Lock </tspan></text>
    </g>
    <path
       stroke-width="2.666670083999634"
       id="shape40"
       d="M.0,.0L50.5,.0"
       transform="translate(37.654248,78.853710)"
       fill="none"
       stroke="#191919"
       stroke-dasharray="10.1333,3.2" />
    <g
       id="shape41"
       transform="translate(85.764516,75.642407)">
      <text
         xml:space="preserve"
         style="fill:#191919;font-family:Arial,PingFang SC,Mircrosoft YaHei,Arial;font-size:12.00pt"
         id="text20"><tspan
           y="9.3"
           x="7.0"
           style="font-family:Arial,PingFang SC,Mircrosoft YaHei,Arial"
           id="tspan20">OPCUA</tspan></text>
    </g>
    <g
       id="group42"
       transform="translate(716.313600,149.041000)">
      <path
         stroke-width="1"
         id="shape43"
         d="M11.0,.0L114.7,.0C120.8,.0,125.7,4.9,125.7,11.0L125.7,124.8C125.7,130.9,120.8,135.8,114.7,135.8L11.0,135.8C4.9,135.8,.0,130.9,.0,124.8L.0,11.0C.0,4.9,4.9,.0,11.0,.0z"
         fill="#ebebeb"
         stroke="#467dfe"
         fill-rule="nonzero" />
    </g>
    <g
       id="group44"
       transform="translate(716.313600,175.215000)">
      <path
         stroke-width="1"
         id="shape45"
         d="M11.0,.0L114.7,.0C120.8,.0,125.7,4.9,125.7,11.0L125.7,87.5C125.7,93.6,120.8,98.5,114.7,98.5L11.0,98.5C4.9,98.5,.0,93.6,.0,87.5L.0,11.0C.0,4.9,4.9,.0,11.0,.0z"
         fill="#98fab9"
         stroke="#467dfe"
         fill-rule="nonzero" />
    </g>
    <g
       id="group46"
       transform="translate(716.313600,194.453300)">
      <path
         stroke-width="1"
         id="shape47"
         d="M11.0,.0L114.7,.0C120.8,.0,125.7,4.9,125.7,11.0L125.7,51.5C125.7,57.6,120.8,62.5,114.7,62.5L11.0,62.5C4.9,62.5,.0,57.6,.0,51.5L.0,11.0C.0,4.9,4.9,.0,11.0,.0z"
         fill="#fab0b1"
         stroke="#467dfe"
         fill-rule="nonzero" />
    </g>
    <g
       id="group48"
       transform="translate(716.313600,214.041200)">
      <path
         stroke-width="1"
         id="shape49"
         d="M11.0,.0L114.7,.0C120.8,.0,125.7,4.9,125.7,11.0L125.7,21.8C125.7,27.9,120.8,32.8,114.7,32.8L11.0,32.8C4.9,32.8,.0,27.9,.0,21.8L.0,11.0C.0,4.9,4.9,.0,11.0,.0z"
         fill="#feccab"
         stroke="#467dfe"
         fill-rule="nonzero" />
    </g>
    <g
       id="shape50"
       transform="translate(716.313600,147.041000)">
      <text
         xml:space="preserve"
         style="fill:#191919;font-family:Arial,PingFang SC,Mircrosoft YaHei,Arial;font-size:13.00pt"
         id="text24"><tspan
           y="24.8"
           x="4.3"
           style="font-family:Arial,PingFang SC,Mircrosoft YaHei,Arial"
           id="tspan21">Alarm Worker</tspan><tspan
           y="44.8"
           x="4.3"
           style="font-family:Arial,PingFang SC,Mircrosoft YaHei,Arial"
           id="tspan22">AlarmManager</tspan><tspan
           y="64.8"
           x="4.3"
           style="font-family:Arial,PingFang SC,Mircrosoft YaHei,Arial"
           id="tspan23">AlarmEngine</tspan><tspan
           y="84.8"
           x="4.3"
           style="font-family:Arial,PingFang SC,Mircrosoft YaHei,Arial"
           id="tspan24">AlarmsLogger</tspan></text>
    </g>
    <g
       id="shape51"
       transform="translate(234.748000,253.954000)">
      <path
         stroke-width="2.666670083999634"
         d="M-9.8,.0L-91.6,-0.0"
         fill="none"
         stroke="#191919"
         stroke-dasharray="5.33334,13.3334"
         id="path24" />
      <path
         stroke-linecap="round"
         stroke-width="1"
         d="M-9.8,-4.9L.0,.0L-9.8,4.9L-9.8,-4.9"
         fill="#191919"
         stroke="#191919"
         id="path25" />
      <path
         stroke-linecap="round"
         stroke-width="1"
         d="M-91.6,4.9L-101.4,-0.0L-91.6,-4.9L-91.6,4.9"
         fill="#191919"
         stroke="#191919"
         id="path26" />
    </g>
    <g
       id="shape52"
       transform="translate(833.116751,124.000100)">
      <path
         stroke-width="2.666670083999634"
         d="M.0,5.9L.0,15.4"
         fill="none"
         stroke="#ff0000"
         stroke-dasharray="5.33334,13.3334"
         id="path27" />
      <path
         stroke-linecap="round"
         stroke-width="1"
         d="M-5.9,5.9L.0,.0L5.9,5.9L-5.9,5.9"
         fill="#ff0000"
         stroke="#ff0000"
         id="path28" />
      <path
         stroke-linecap="round"
         stroke-width="1"
         d="M4.9,15.4L.0,25.2L-4.9,15.4L4.9,15.4"
         fill="#ff0000"
         stroke="#ff0000"
         id="path29" />
    </g>
    <g
       id="group53"
       transform="translate(234.748000,242.541150)">
      <path
         stroke-width="1"
         id="shape54"
         d="M11.0,.0L134.3,.0C140.3,.0,145.3,4.9,145.3,11.0L145.3,11.8C145.3,17.9,140.3,22.8,134.3,22.8L11.0,22.8C4.9,22.8,.0,17.9,.0,11.8L.0,11.0C.0,4.9,4.9,.0,11.0,.0z"
         fill="#379e90"
         stroke="#467dfe"
         fill-rule="nonzero" />
    </g>
    <g
       id="group55"
       transform="translate(225.018000,113.476100)">
      <path
         stroke-width="1"
         id="shape56"
         d="M11.0,.0L144.0,.0C150.1,.0,155.0,4.9,155.0,11.0L155.0,11.8C155.0,17.9,150.1,22.8,144.0,22.8L11.0,22.8C4.9,22.8,.0,17.9,.0,11.8L.0,11.0C.0,4.9,4.9,.0,11.0,.0z"
         fill="#379e90"
         stroke="#467dfe"
         fill-rule="nonzero" />
    </g>
    <g
       id="shape57"
       transform="translate(242.314000,95.000000)">
      <text
         xml:space="preserve"
         style="fill:#191919;font-family:Arial,PingFang SC,Mircrosoft YaHei,Arial;font-size:11.00pt"
         id="text29"><tspan
           y="34.8"
           x="6.8"
           style="font-family:Arial,PingFang SC,Mircrosoft YaHei,Arial"
           id="tspan29">State Machine n</tspan></text>
    </g>
    <g
       id="shape58"
       transform="translate(247.739000,233.865480)">
      <text
         xml:space="preserve"
         style="fill:#191919;font-family:Arial,PingFang SC,Mircrosoft YaHei,Arial;font-size:11.00pt"
         id="text30"><tspan
           y="22.3"
           x="14.0"
           style="font-family:Arial,PingFang SC,Mircrosoft YaHei,Arial"
           id="tspan30">OPCUA Client</tspan></text>
    </g>
    <g
       id="group59"
       transform="translate(45.389900,222.215000)">
      <g
         id="group61">
        <path
           stroke-width="1"
           id="shape62"
           d="M3.1,6.2C4.8,6.2,6.2,4.8,6.2,3.1C6.2,1.4,4.8,.0,3.1,.0C1.4,.0,.0,1.4,.0,3.1C.0,4.8,1.4,6.2,3.1,6.2z"
           transform="translate(70.507330,10.818340)"
           fill="#467dfe"
           stroke="#467dfe"
           fill-rule="nonzero" />
        <path
           stroke-width="1"
           id="shape63"
           d="M3.1,6.2C4.8,6.2,6.2,4.8,6.2,3.1C6.2,1.4,4.8,.0,3.1,.0C1.4,.0,.0,1.4,.0,3.1C.0,4.8,1.4,6.2,3.1,6.2z"
           transform="translate(60.119130,10.834230)"
           fill="#467dfe"
           stroke="#467dfe"
           fill-rule="nonzero" />
        <path
           stroke-width="1"
           id="shape64"
           d="M3.1,6.2C4.8,6.2,6.2,4.8,6.2,3.1C6.2,1.4,4.8,.0,3.1,.0C1.4,.0,.0,1.4,.0,3.1C.0,4.8,1.4,6.2,3.1,6.2z"
           transform="translate(49.225630,10.818340)"
           fill="#467dfe"
           stroke="#467dfe"
           fill-rule="nonzero" />
        <path
           stroke-width="1"
           id="shape65"
           d="M82.8,.0L5.2,.0C2.3,.0,.0,2.4,.0,5.2L.0,72.8C.0,75.6,2.3,78.0,5.2,78.0L82.8,78.0C85.7,78.0,88.0,75.6,88.0,72.8L88.0,5.2C88.0,2.3,85.6,.0,82.8,.0zM82.5,72.5L5.5,72.5L5.5,28.2L82.5,28.2L82.5,72.5L82.5,72.5zM82.5,21.9L5.5,21.9L5.5,6.2L82.5,6.2L82.5,21.9L82.5,21.9z"
           fill="#467dfe"
           stroke="#467dfe"
           fill-rule="nonzero" />
      </g>
    </g>
    <g
       id="shape66"
       transform="translate(52.519800,242.127700)">
      <text
         xml:space="preserve"
         style="fill:#191919;font-family:Arial,PingFang SC,Mircrosoft YaHei,Arial;font-size:12.00pt"
         id="text32"><tspan
           y="24.1"
           x="6.4"
           style="font-family:Arial,PingFang SC,Mircrosoft YaHei,Arial"
           id="tspan31">Industrial</tspan><tspan
           y="43.1"
           x="6.4"
           style="font-family:Arial,PingFang SC,Mircrosoft YaHei,Arial"
           id="tspan32">Gateway</tspan></text>
    </g>
    <g
       id="shape67"
       transform="translate(438.000000,117.839152)">
      <path
         stroke-width="2.666670083999634"
         d="M-9.8,.0L-21.9,.0L-21.9,136.1L-48.2,136.1"
         fill="none"
         stroke="#315abb"
         stroke-dasharray="5.33334,13.3334"
         id="path32" />
      <path
         stroke-linecap="round"
         stroke-width="1"
         d="M-9.8,-4.9L.0,.0L-9.8,4.9L-9.8,-4.9"
         fill="#315abb"
         stroke="#315abb"
         id="path33" />
      <path
         stroke-linecap="round"
         stroke-width="1"
         d="M-48.2,141.0L-58.0,136.1L-48.2,131.2L-48.2,141.0"
         fill="#315abb"
         stroke="#315abb"
         id="path34" />
    </g>
    <g
       id="shape68"
       transform="translate(438.000000,102.912950)">
      <path
         stroke-width="2.666670083999634"
         d="M-9.8,.0L-30.0,.0L-30.0,22.0L-48.2,22.0"
         fill="none"
         stroke="#ff0000"
         stroke-dasharray="32,8.00001,10.6667,8.00001,10.6667,8.00001"
         id="path35" />
      <path
         stroke-linecap="round"
         stroke-width="1"
         d="M-9.8,-4.9L.0,.0L-9.8,4.9L-9.8,-4.9"
         fill="#ff0000"
         stroke="#ff0000"
         id="path36" />
      <path
         stroke-linecap="round"
         stroke-width="1"
         d="M-48.2,26.9L-58.0,22.0L-48.2,17.1L-48.2,26.9"
         fill="#ff0000"
         stroke="#ff0000"
         id="path37" />
    </g>
    <path
       stroke-width="2.666670083999634"
       id="shape69"
       d="M.0,.0L50.5,.0"
       transform="translate(37.654248,98.036430)"
       fill="none"
       stroke="#315abb"
       stroke-dasharray="10.1333,3.2" />
    <g
       id="shape70"
       transform="translate(87.242666,82.825100)">
      <text
         xml:space="preserve"
         style="fill:#191919;font-family:Arial,PingFang SC,Mircrosoft YaHei,Arial;font-size:12.00pt"
         id="text38"><tspan
           y="20.1"
           x="6.3"
           style="font-family:Arial,PingFang SC,Mircrosoft YaHei,Arial"
           id="tspan37">Global Access </tspan><tspan
           y="39.1"
           x="18.8"
           style="font-family:Arial,PingFang SC,Mircrosoft YaHei,Arial"
           id="tspan38">(Singleton)</tspan></text>
    </g>
    <g
       id="group71"
       transform="translate(586.313600,193.453300)">
      <path
         stroke-width="1"
         id="shape72"
         d="M11.0,.0L114.7,.0C120.8,.0,125.7,4.9,125.7,11.0L125.7,51.5C125.7,57.6,120.8,62.5,114.7,62.5L11.0,62.5C4.9,62.5,.0,57.6,.0,51.5L.0,11.0C.0,4.9,4.9,.0,11.0,.0z"
         fill="#fab0b1"
         stroke="#467dfe"
         fill-rule="nonzero" />
    </g>
    <g
       id="group73"
       transform="translate(586.313600,212.041200)">
      <path
         stroke-width="1"
         id="shape74"
         d="M11.0,.0L114.7,.0C120.8,.0,125.7,4.9,125.7,11.0L125.7,21.8C125.7,27.9,120.8,32.8,114.7,32.8L11.0,32.8C4.9,32.8,.0,27.9,.0,21.8L.0,11.0C.0,4.9,4.9,.0,11.0,.0z"
         fill="#feccab"
         stroke="#467dfe"
         fill-rule="nonzero" />
    </g>
    <g
       id="shape75"
       transform="translate(587.314000,196.453300)">
      <text
         xml:space="preserve"
         style="fill:#191919;font-family:Arial,PingFang SC,Mircrosoft YaHei,Arial;font-size:13.00pt"
         id="text40"><tspan
           y="15.9"
           x="4.3"
           style="font-family:Arial,PingFang SC,Mircrosoft YaHei,Arial"
           id="tspan39">EventsEngine</tspan><tspan
           y="35.9"
           x="4.3"
           style="font-family:Arial,PingFang SC,Mircrosoft YaHei,Arial"
           id="tspan40">EventsLogger</tspan></text>
    </g>
    <g
       id="group76"
       transform="translate(437.054035,193.959000)">
      <path
         stroke-width="1"
         id="shape77"
         d="M11.0,.0L133.9,.0C140.0,.0,144.9,4.9,144.9,11.0L144.9,51.5C144.9,57.6,140.0,62.5,133.9,62.5L11.0,62.5C4.9,62.5,.0,57.6,.0,51.5L.0,11.0C.0,4.9,4.9,.0,11.0,.0z"
         fill="#fab0b1"
         stroke="#467dfe"
         fill-rule="nonzero" />
    </g>
    <g
       id="group78"
       transform="translate(437.054035,212.546600)">
      <path
         stroke-width="1"
         id="shape79"
         d="M11.0,.0L133.9,.0C140.0,.0,144.9,4.9,144.9,11.0L144.9,21.8C144.9,27.9,140.0,32.8,133.9,32.8L11.0,32.8C4.9,32.8,.0,27.9,.0,21.8L.0,11.0C.0,4.9,4.9,.0,11.0,.0z"
         fill="#feccab"
         stroke="#467dfe"
         fill-rule="nonzero" />
    </g>
    <g
       id="shape80"
       transform="translate(779.156800,246.866900)">
      <path
         stroke-width="2.666670083999634"
         d="M.0,9.8L.0,78.0L-425.9,78.0"
         fill="none"
         stroke="#bb720e"
         stroke-dasharray="5.33334,13.3334"
         id="path40" />
      <path
         stroke-linecap="round"
         stroke-width="1"
         d="M-4.9,9.8L.0,.0L4.9,9.8L-4.9,9.8"
         fill="#bb720e"
         stroke="#bb720e"
         id="path41" />
      <path
         stroke-linecap="round"
         stroke-width="1"
         d="M-425.9,82.9L-435.7,78.0L-425.9,73.1L-425.9,82.9"
         fill="#bb720e"
         stroke="#bb720e"
         id="path42" />
    </g>
    <g
       id="shape81"
       transform="translate(695.400934,244.866900)">
      <path
         stroke-width="2.666670083999634"
         d="M.0,9.8L.0,80.0L-340.3,80.0"
         fill="none"
         stroke="#bb720e"
         stroke-dasharray="5.33334,13.3334"
         id="path43" />
      <path
         stroke-linecap="round"
         stroke-width="1"
         d="M-4.9,9.8L.0,.0L4.9,9.8L-4.9,9.8"
         fill="#bb720e"
         stroke="#bb720e"
         id="path44" />
      <path
         stroke-linecap="round"
         stroke-width="1"
         d="M-340.3,84.9L-350.1,80.0L-340.3,75.1L-340.3,84.9"
         fill="#bb720e"
         stroke="#bb720e"
         id="path45" />
    </g>
    <g
       id="shape82"
       transform="translate(509.527018,245.372300)">
      <path
         stroke-width="2.666670083999634"
         d="M.0,9.8L.0,79.5L-155.1,79.5"
         fill="none"
         stroke="#bb720e"
         stroke-dasharray="5.33334,13.3334"
         id="path46" />
      <path
         stroke-linecap="round"
         stroke-width="1"
         d="M-4.9,9.8L.0,.0L4.9,9.8L-4.9,9.8"
         fill="#bb720e"
         stroke="#bb720e"
         id="path47" />
      <path
         stroke-linecap="round"
         stroke-width="1"
         d="M-155.1,84.4L-164.9,79.5L-155.1,74.6L-155.1,84.4"
         fill="#bb720e"
         stroke="#bb720e"
         id="path48" />
    </g>
    <g
       id="shape83"
       transform="translate(438.157000,186.302200)">
      <text
         xml:space="preserve"
         style="fill:#191919;font-family:Arial,PingFang SC,Mircrosoft YaHei,Arial;font-size:13.00pt"
         id="text49"><tspan
           y="24.0"
           x="4.4"
           style="font-family:Arial,PingFang SC,Mircrosoft YaHei,Arial"
           id="tspan48">UsersEngine</tspan><tspan
           y="44.0"
           x="4.4"
           style="font-family:Arial,PingFang SC,Mircrosoft YaHei,Arial"
           id="tspan49">UsersLogger</tspan></text>
    </g>
    <g
       id="shape84"
       transform="translate(832.976564,149.218350)">
      <path
         stroke-width="2.666670083999634"
         d="M.1,5.9L.6,35.8"
         fill="none"
         stroke="#315abb"
         stroke-dasharray="5.33334,13.3334"
         id="path49" />
      <path
         stroke-linecap="round"
         stroke-width="1"
         d="M-5.8,6.0L.0,.0L6.0,5.8L-5.8,6.0"
         fill="#315abb"
         stroke="#315abb"
         id="path50" />
      <path
         stroke-linecap="round"
         stroke-width="1"
         d="M5.5,35.7L.7,45.6L-4.3,35.8L5.5,35.7"
         fill="#315abb"
         stroke="#315abb"
         id="path51" />
    </g>
    <g
       id="shape85"
       transform="translate(968.190571,149.041000)">
      <path
         stroke-width="2.666670083999634"
         d="M.1,5.9L.6,35.6"
         fill="none"
         stroke="#315abb"
         stroke-dasharray="5.33334,13.3334"
         id="path52" />
      <path
         stroke-linecap="round"
         stroke-width="1"
         d="M-5.8,6.0L.0,.0L6.0,5.8L-5.8,6.0"
         fill="#315abb"
         stroke="#315abb"
         id="path53" />
      <path
         stroke-linecap="round"
         stroke-width="1"
         d="M5.5,35.5L.8,45.4L-4.3,35.7L5.5,35.5"
         fill="#315abb"
         stroke="#315abb"
         id="path54" />
    </g>
    <g
       id="group86"
       transform="translate(225.028000,155.958200)">
      <path
         stroke-width="1"
         id="shape87"
         d="M11.0,.0L151.0,.0C157.0,.0,162.0,4.9,162.0,11.0L162.0,51.5C162.0,57.6,157.0,62.5,151.0,62.5L11.0,62.5C4.9,62.5,.0,57.6,.0,51.5L.0,11.0C.0,4.9,4.9,.0,11.0,.0z"
         fill="#fab0b1"
         stroke="#467dfe"
         fill-rule="nonzero" />
    </g>
    <g
       id="group88"
       transform="translate(225.028000,174.545800)">
      <path
         stroke-width="1"
         id="shape89"
         d="M11.0,.0L151.0,.0C157.0,.0,162.0,4.9,162.0,11.0L162.0,21.8C162.0,27.9,157.0,32.8,151.0,32.8L11.0,32.8C4.9,32.8,.0,27.9,.0,21.8L.0,11.0C.0,4.9,4.9,.0,11.0,.0z"
         fill="#feccab"
         stroke="#467dfe"
         fill-rule="nonzero" />
    </g>
    <g
       id="shape90"
       transform="translate(226.130500,148.301800)">
      <text
         xml:space="preserve"
         style="fill:#191919;font-family:Arial,PingFang SC,Mircrosoft YaHei,Arial;font-size:13.00pt"
         id="text55"><tspan
           y="23.9"
           x="4.4"
           style="font-family:Arial,PingFang SC,Mircrosoft YaHei,Arial"
           id="tspan54">MachinesEngine</tspan><tspan
           y="43.9"
           x="4.4"
           style="font-family:Arial,PingFang SC,Mircrosoft YaHei,Arial"
           id="tspan55">MachinesLogger</tspan></text>
    </g>
    <g
       id="shape91"
       transform="translate(367.271234,136.301800)">
      <path
         stroke-width="2.666670083999634"
         d="M.0,5.9L.0,28.4"
         fill="none"
         stroke="#315abb"
         stroke-dasharray="5.33334,13.3334"
         id="path55" />
      <path
         stroke-linecap="round"
         stroke-width="1"
         d="M-5.9,5.9L.0,.0L5.9,5.9L-5.9,5.9"
         fill="#315abb"
         stroke="#315abb"
         id="path56" />
      <path
         stroke-linecap="round"
         stroke-width="1"
         d="M4.9,28.4L.0,38.2L-4.9,28.4L4.9,28.4"
         fill="#315abb"
         stroke="#315abb"
         id="path57" />
    </g>
    <g
       id="shape92"
       transform="translate(387.000000,190.958650)">
      <path
         stroke-width="2.666666746139526"
         d="M5.9,.0L23.1,.0C23.1,-3.3,25.8,-6.0,29.1,-6.0C32.4,-6.0,35.1,-3.3,35.1,.0L40.0,.0L40.0,116.5L-34.9,116.5"
         fill="none"
         stroke="#bb720e"
         stroke-dasharray="29.3333,13.3333"
         id="path58" />
      <path
         stroke-linecap="round"
         stroke-width="1"
         d="M5.9,5.9L.0,.0L5.9,-5.9L5.9,5.9"
         fill="#bb720e"
         stroke="#bb720e"
         id="path59" />
      <path
         stroke-linecap="round"
         stroke-width="1"
         d="M-34.9,121.4L-44.7,116.5L-34.9,111.6L-34.9,121.4"
         fill="#bb720e"
         stroke="#bb720e"
         id="path60" />
    </g>
  </g>
</svg>
